<svg id="Layer_1" data-name="Layer 1" xmlns="http://www.w3.org/2000/svg" viewBox="0 0 1977.89 1500.87"><defs><style>.cls-1{fill:#fff;opacity:0.04;isolation:isolate;}</style></defs><title>shape-k</title><path class="cls-1" d="M1936.7,263a90.85,90.85,0,0,1,66.55,109.89v0L1742.92,1431.69A90.84,90.84,0,0,1,1633,1498.23h0L574.19,1237.92A90.84,90.84,0,0,1,507.65,1128h0L768,69.18A90.85,90.85,0,0,1,877.91,2.65h0Z" transform="translate(-505 0)"/><path class="cls-1" d="M2413.7,263a90.85,90.85,0,0,1,66.55,109.89v0L2219.92,1431.69A90.84,90.84,0,0,1,2110,1498.23h0l-1058.81-260.3A90.84,90.84,0,0,1,984.65,1128h0L1245,69.18A90.85,90.85,0,0,1,1354.91,2.65h0Z" transform="translate(-505 0)"/></svg>