<?xml version="1.0"?>
<svg xmlns="http://www.w3.org/2000/svg" viewBox="0 0 64 64" width="512" height="512"><g id="Bank-money-exchage-finance-credit"><path d="M61,32H49V25.82A3.01,3.01,0,0,0,51,23V22a3.009,3.009,0,0,0,3-3V18h1a1,1,0,0,0,.52-1.85l-23-14a.976.976,0,0,0-1.04,0l-23,14A1,1,0,0,0,9,18h1v1a3.009,3.009,0,0,0,3,3v1a3.01,3.01,0,0,0,2,2.82V32H3a1,1,0,0,0-1,1V61a1,1,0,0,0,1,1H61a1,1,0,0,0,1-1V33A1,1,0,0,0,61,32ZM49,23a1,1,0,0,1-1,1H44a1,1,0,0,1-1-1V22h6Zm-2,3v6H45V26ZM32,4.17,51.43,16H12.57ZM13,20a1,1,0,0,1-1-1V18H52v1a1,1,0,0,1-1,1Zm17,4a1,1,0,0,1-1-1V22h6v1a1,1,0,0,1-1,1Zm3,2v6H31V26Zm2-.18A3.01,3.01,0,0,0,37,23V22h4v1a3.01,3.01,0,0,0,2,2.82V32H35ZM16,24a1,1,0,0,1-1-1V22h6v1a1,1,0,0,1-1,1Zm3,2v6H17V26Zm2-.18A3.01,3.01,0,0,0,23,23V22h4v1a3.01,3.01,0,0,0,2,2.82V32H21ZM60,60H4V34H60Z"/><path d="M32,58A11,11,0,1,0,21,47,11.013,11.013,0,0,0,32,58Zm0-20a9,9,0,1,1-9,9A9.011,9.011,0,0,1,32,38Z"/><path d="M32,50a1,1,0,0,1-1-1H29a3,3,0,0,0,2,2.816V53h2V51.816A2.993,2.993,0,0,0,32,46a1,1,0,1,1,1-1h2a3,3,0,0,0-2-2.816V41H31v1.184A2.993,2.993,0,0,0,32,48a1,1,0,0,1,0,2Z"/><path d="M8,40.874A4.016,4.016,0,0,0,10.874,38H13V36H10a1,1,0,0,0-1,1,2,2,0,0,1-2,2,1,1,0,0,0-1,1v3H8Z"/><path d="M7,55a2,2,0,0,1,2,2,1,1,0,0,0,1,1h3V56H10.874A4.016,4.016,0,0,0,8,53.126V51H6v3A1,1,0,0,0,7,55Z"/><path d="M56,40.874V43h2V40a1,1,0,0,0-1-1,2,2,0,0,1-2-2,1,1,0,0,0-1-1H51v2h2.126A4.016,4.016,0,0,0,56,40.874Z"/><path d="M55,57a2,2,0,0,1,2-2,1,1,0,0,0,1-1V51H56v2.126A4.016,4.016,0,0,0,53.126,56H51v2h3A1,1,0,0,0,55,57Z"/><rect x="21" y="12" width="2" height="2"/><rect x="25" y="12" width="2" height="2"/><rect x="37" y="12" width="2" height="2"/><rect x="41" y="12" width="2" height="2"/><path d="M32,8a3,3,0,1,0,3,3A3,3,0,0,0,32,8Zm0,4a1,1,0,1,1,1-1A1,1,0,0,1,32,12Z"/><path d="M4,10A3,3,0,0,1,7,7h7.586L13.293,8.293l1.414,1.414,3-3a1,1,0,0,0,0-1.414l-3-3L13.293,3.707,14.586,5H7a5.006,5.006,0,0,0-5,5V22H4Z"/><path d="M57,5H49.414l1.293-1.293L49.293,2.293l-3,3a1,1,0,0,0,0,1.414l3,3,1.414-1.414L49.414,7H57a3,3,0,0,1,3,3V22h2V10A5.006,5.006,0,0,0,57,5Z"/></g></svg>
