<?xml version="1.0" encoding="iso-8859-1"?>
<!-- Generator: Adobe Illustrator 19.0.0, SVG Export Plug-In . SVG Version: 6.00 Build 0)  -->
<svg version="1.1" id="Capa_1" xmlns="http://www.w3.org/2000/svg" xmlns:xlink="http://www.w3.org/1999/xlink" x="0px" y="0px"
	 viewBox="0 0 464.009 464.009" style="enable-background:new 0 0 464.009 464.009;" xml:space="preserve">
<path style="fill:#F3AF3E;" d="M151.982,392.004l-48,40l9.224-71.432l6.776-0.568l8-6.632l34,32.632L151.982,392.004z"/>
<path style="fill:#B3E4E8;" d="M183.982,48.004c0-22.091-17.909-40-40-40h-16c-22.091,0-40,17.909-40,40c-22.091,0-40,17.909-40,40
	s17.909,40,40,40h96c22.091,0,40-17.909,40-40S206.073,48.004,183.982,48.004z"/>
<path style="fill:#8ACED8;" d="M423.982,392.004c0-17.673-14.327-32-32-32s-32,14.327-32,32c-17.673,0-32,14.327-32,32
	s14.327,32,32,32h64c17.673,0,32-14.327,32-32S441.655,392.004,423.982,392.004z"/>
<g>
	<g>
		<path id="SVGCleanerId_0" style="fill:#EA6B65;" d="M415.982,192.004h16v16h-16V192.004z"/>
	</g>
	<g>
		<path id="SVGCleanerId_1" style="fill:#EA6B65;" d="M383.982,224.004h16v16h-16V224.004z"/>
	</g>
	<g>
		<path id="SVGCleanerId_2" style="fill:#EA6B65;" d="M351.982,248.004h16v16h-16V248.004z"/>
	</g>
</g>
<path style="fill:#EA9D2D;" d="M7.982,248.004l64,64l32,120l16-72l72,72l208-304L7.982,248.004z"/>
<g>
	<path style="fill:#FBB540;" d="M399.982,128.004l-328,184l-64-64L399.982,128.004z"/>
	<path style="fill:#FBB540;" d="M191.982,432.004l-72-72l280-232L191.982,432.004z"/>
</g>
<path d="M64.326,315.66l0.48,0.48l31.448,117.928c0.048,0.176,0.16,0.312,0.216,0.488c0.163,0.444,0.361,0.875,0.592,1.288
	c0.173,0.335,0.37,0.656,0.592,0.96c0.542,0.647,1.153,1.232,1.824,1.744c0.128,0.088,0.208,0.208,0.336,0.288
	c0.331,0.17,0.673,0.317,1.024,0.44c0.243,0.126,0.494,0.235,0.752,0.328c0.772,0.255,1.579,0.39,2.392,0.4h0.168
	c0.543-0.043,1.079-0.144,1.6-0.304c0.34-0.04,0.677-0.104,1.008-0.192c0.855-0.311,1.65-0.766,2.352-1.344l42.4-35.32
	l34.832,34.832c1.499,1.491,3.526,2.328,5.64,2.328h0.744c2.369-0.224,4.515-1.49,5.856-3.456l208-304
	c0.256-0.423,0.471-0.871,0.64-1.336c0.132-0.241,0.249-0.489,0.352-0.744c0.048-0.128,0.072-0.256,0.112-0.384
	c0.053-0.286,0.09-0.574,0.112-0.864c0.103-0.468,0.165-0.945,0.184-1.424c0-0.12-0.056-0.24-0.064-0.368
	c-0.037-0.331-0.093-0.66-0.168-0.984c-0.079-0.443-0.194-0.879-0.344-1.304c-0.017-0.094-0.038-0.188-0.064-0.28
	c-0.041-0.07-0.086-0.137-0.136-0.2c-0.126-0.249-0.267-0.489-0.424-0.72c-0.102-0.23-0.217-0.455-0.344-0.672
	c-0.147-0.16-0.301-0.312-0.464-0.456c-0.16-0.184-0.288-0.376-0.456-0.544s-0.08-0.12-0.136-0.176s-0.24-0.128-0.352-0.216
	c-0.366-0.303-0.76-0.57-1.176-0.8c-0.233-0.148-0.473-0.285-0.72-0.408c-0.136-0.056-0.272-0.12-0.416-0.168
	c-0.494-0.165-1.003-0.277-1.52-0.336c-0.272,0-0.528-0.12-0.8-0.136c-0.08-0.004-0.16-0.004-0.24,0
	c-0.845-0.021-1.688,0.096-2.496,0.344l-392,120c-4.225,1.292-6.603,5.765-5.31,9.99c0.383,1.251,1.066,2.389,1.99,3.314
	L64.326,315.66z M114.878,353.844c-0.088,0.072-0.128,0.184-0.208,0.264c-0.34,0.301-0.65,0.633-0.928,0.992
	c-0.152,0.192-0.294,0.392-0.424,0.6c-0.161,0.211-0.308,0.433-0.44,0.664c-0.056,0.104-0.072,0.224-0.12,0.328
	c-0.253,0.51-0.449,1.047-0.584,1.6l-8.896,40l-21.968-82.4l245.6-137.752L114.878,353.844z M116.878,410.844l7.752-34.84
	l15.504,15.504L116.878,410.844z M157.678,386.348l-25.792-25.792L361.182,170.54l-170.36,248.992L157.678,386.348z
	 M331.182,157.436L73.35,302.06l-50.304-50.304L331.182,157.436z"/>
<path d="M80.558,40.58c-26.192,4.095-44.105,28.646-40.01,54.838c3.653,23.367,23.783,40.591,47.434,40.586h96
	c26.51,0.006,48.005-21.48,48.01-47.99c0.005-23.651-17.219-43.781-40.586-47.434c-3.685-23.344-23.791-40.547-47.424-40.576h-16
	C104.349,0.034,84.243,17.237,80.558,40.58z M175.982,48.004c0,4.418,3.582,8,8,8c17.673,0,32,14.327,32,32s-14.327,32-32,32h-96
	c-17.673,0-32-14.327-32-32s14.327-32,32-32c4.418,0,8-3.582,8-8c0-17.673,14.327-32,32-32h16
	C161.655,16.004,175.982,30.331,175.982,48.004z"/>
<path d="M431.31,384.676c-4.032-21.72-24.909-36.059-46.629-32.027c-16.274,3.021-29.006,15.753-32.027,32.027
	c-21.72,4.032-36.059,24.909-32.027,46.629c3.52,18.962,20.069,32.712,39.355,32.699h64c22.091,0.015,40.012-17.882,40.027-39.973
	C464.022,404.746,450.272,388.197,431.31,384.676z M423.982,448.004h-64c-13.255,0-24-10.745-24-24s10.745-24,24-24
	c4.418,0,8-3.582,8-8c0-13.255,10.745-24,24-24s24,10.745,24,24c0,4.418,3.582,8,8,8c13.255,0,24,10.745,24,24
	S437.237,448.004,423.982,448.004L423.982,448.004z"/>
<path id="SVGCleanerId_0_1_" d="M415.982,192.004h16v16h-16V192.004z"/>
<path id="SVGCleanerId_1_1_" d="M383.982,224.004h16v16h-16V224.004z"/>
<path id="SVGCleanerId_2_1_" d="M351.982,248.004h16v16h-16V248.004z"/>
<g>
</g>
<g>
</g>
<g>
</g>
<g>
</g>
<g>
</g>
<g>
</g>
<g>
</g>
<g>
</g>
<g>
</g>
<g>
</g>
<g>
</g>
<g>
</g>
<g>
</g>
<g>
</g>
<g>
</g>
</svg>
